<svg width="41" height="40" viewBox="0 0 41 40" fill="none" xmlns="http://www.w3.org/2000/svg">
<g clip-path="url(#clip0_132_1052)">
<path d="M6.21429 2.5C3.0625 2.5 0.5 4.74219 0.5 7.5V32.5C0.5 35.2578 3.0625 37.5 6.21429 37.5H34.7857C37.9375 37.5 40.5 35.2578 40.5 32.5V7.5C40.5 4.74219 37.9375 2.5 34.7857 2.5H6.21429ZM14.3125 10.0547C15.1786 9.85156 16.0893 10.2344 16.4286 10.9609L18.2143 14.7109C18.5179 15.3516 18.3036 16.0859 17.6964 16.5234L15.5 18.1016C16.9821 20.8516 19.5268 23.0781 22.6696 24.375L24.4732 22.4453C24.9732 21.9141 25.8125 21.7266 26.5446 21.9922L30.8304 23.5547C31.6607 23.8594 32.0982 24.6484 31.8661 25.4062L30.7946 28.8438C30.5804 29.5313 29.875 30 29.0714 30C18.0268 30 9.07143 22.1641 9.07143 12.5C9.07143 11.7969 9.60714 11.1797 10.3839 10.9922L14.3125 10.0547Z" fill="#F69605"/>
</g>
<defs>
<clipPath id="clip0_132_1052">
<rect width="40" height="40" fill="white" transform="translate(0.5)"/>
</clipPath>
</defs>
</svg>
