<svg width="41" height="40" viewBox="0 0 41 40" fill="none" xmlns="http://www.w3.org/2000/svg">
<g clip-path="url(#clip0_132_1046)">
<path d="M20 17C20.9167 17 21.7017 16.6734 22.355 16.02C23.0072 15.3678 23.3333 14.5834 23.3333 13.6667C23.3333 12.75 23.0072 11.965 22.355 11.3117C21.7017 10.6595 20.9167 10.3334 20 10.3334C19.0833 10.3334 18.2989 10.6595 17.6467 11.3117C16.9933 11.965 16.6667 12.75 16.6667 13.6667C16.6667 14.5834 16.9933 15.3678 17.6467 16.02C18.2989 16.6734 19.0833 17 20 17ZM20 33.6667C15.5278 29.8612 12.1878 26.3262 9.98 23.0617C7.77111 19.7984 6.66667 16.7778 6.66667 14C6.66667 9.83337 8.00722 6.51393 10.6883 4.04171C13.3683 1.56948 16.4722 0.333374 20 0.333374C23.5278 0.333374 26.6317 1.56948 29.3117 4.04171C31.9928 6.51393 33.3333 9.83337 33.3333 14C33.3333 16.7778 32.2294 19.7984 30.0217 23.0617C27.8128 26.3262 24.4722 29.8612 20 33.6667Z" fill="#F69605"/>
</g>
<defs>
<clipPath id="clip0_132_1046">
<rect width="40" height="40" fill="white" transform="translate(0.5)"/>
</clipPath>
</defs>
</svg>
