<svg width="191" height="79" viewBox="0 0 191 79" fill="none" xmlns="http://www.w3.org/2000/svg">
<rect x="1" y="1" width="189" height="53" fill="white" stroke="#353535" stroke-width="2" stroke-linejoin="round" stroke-dasharray="200 200"/>
<path d="M50.992 36V19.2H54.88V36H50.992ZM58.867 36V19.2H62.083L71.995 31.296H70.435V19.2H74.275V36H71.083L61.147 23.904H62.707V36H58.867ZM78.2498 36V19.2H85.8818C87.7058 19.2 89.3138 19.552 90.7058 20.256C92.0978 20.944 93.1858 21.912 93.9698 23.16C94.7538 24.408 95.1458 25.888 95.1458 27.6C95.1458 29.296 94.7538 30.776 93.9698 32.04C93.1858 33.288 92.0978 34.264 90.7058 34.968C89.3138 35.656 87.7058 36 85.8818 36H78.2498ZM82.1378 32.808H85.6898C86.8098 32.808 87.7778 32.6 88.5938 32.184C89.4258 31.752 90.0658 31.144 90.5138 30.36C90.9778 29.576 91.2098 28.656 91.2098 27.6C91.2098 26.528 90.9778 25.608 90.5138 24.84C90.0658 24.056 89.4258 23.456 88.5938 23.04C87.7778 22.608 86.8098 22.392 85.6898 22.392H82.1378V32.808ZM98.0779 36V19.2H101.966V36H98.0779ZM103.745 36L111.233 19.2H115.073L122.585 36H118.505L112.361 21.168H113.897L107.729 36H103.745ZM107.489 32.4L108.521 29.448H117.161L118.217 32.4H107.489ZM124.328 36V19.2H127.544L137.456 31.296H135.896V19.2H139.736V36H136.544L126.608 23.904H128.168V36H124.328Z" fill="#353535"/>
<path d="M39.328 71V59.8H44.176C45.1787 59.8 46.0427 59.9653 46.768 60.296C47.4933 60.616 48.0533 61.08 48.448 61.688C48.8427 62.296 49.04 63.0213 49.04 63.864C49.04 64.696 48.8427 65.416 48.448 66.024C48.0533 66.6213 47.4933 67.08 46.768 67.4C46.0427 67.72 45.1787 67.88 44.176 67.88H40.768L41.92 66.744V71H39.328ZM46.448 71L43.648 66.936H46.416L49.248 71H46.448ZM41.92 67.032L40.768 65.816H44.032C44.832 65.816 45.4293 65.6453 45.824 65.304C46.2187 64.952 46.416 64.472 46.416 63.864C46.416 63.2453 46.2187 62.7653 45.824 62.424C45.4293 62.0827 44.832 61.912 44.032 61.912H40.768L41.92 60.68V67.032ZM53.4776 64.312H58.8696V66.328H53.4776V64.312ZM53.6696 68.92H59.7656V71H51.0936V59.8H59.5576V61.88H53.6696V68.92ZM65.508 71.192C64.612 71.192 63.7533 71.0747 62.932 70.84C62.1107 70.5947 61.4493 70.28 60.948 69.896L61.828 67.944C62.308 68.2853 62.8733 68.568 63.524 68.792C64.1853 69.0053 64.852 69.112 65.524 69.112C66.036 69.112 66.4467 69.064 66.756 68.968C67.076 68.8613 67.3107 68.7173 67.46 68.536C67.6093 68.3547 67.684 68.1467 67.684 67.912C67.684 67.6133 67.5667 67.3787 67.332 67.208C67.0973 67.0267 66.788 66.8827 66.404 66.776C66.02 66.6587 65.5933 66.552 65.124 66.456C64.6653 66.3493 64.2013 66.2213 63.732 66.072C63.2733 65.9227 62.852 65.7307 62.468 65.496C62.084 65.2613 61.7693 64.952 61.524 64.568C61.2893 64.184 61.172 63.6933 61.172 63.096C61.172 62.456 61.3427 61.8747 61.684 61.352C62.036 60.8187 62.5587 60.3973 63.252 60.088C63.956 59.768 64.836 59.608 65.892 59.608C66.596 59.608 67.2893 59.6933 67.972 59.864C68.6547 60.024 69.2573 60.2693 69.78 60.6L68.98 62.568C68.4573 62.2693 67.9347 62.0507 67.412 61.912C66.8893 61.7627 66.3773 61.688 65.876 61.688C65.3747 61.688 64.964 61.7467 64.644 61.864C64.324 61.9813 64.0947 62.136 63.956 62.328C63.8173 62.5093 63.748 62.7227 63.748 62.968C63.748 63.256 63.8653 63.4907 64.1 63.672C64.3347 63.8427 64.644 63.9813 65.028 64.088C65.412 64.1947 65.8333 64.3013 66.292 64.408C66.7613 64.5147 67.2253 64.6373 67.684 64.776C68.1533 64.9147 68.58 65.1013 68.964 65.336C69.348 65.5707 69.6573 65.88 69.892 66.264C70.1373 66.648 70.26 67.1333 70.26 67.72C70.26 68.3493 70.084 68.9253 69.732 69.448C69.38 69.9707 68.852 70.392 68.148 70.712C67.4547 71.032 66.5747 71.192 65.508 71.192ZM74.1949 71V61.912H70.6109V59.8H80.3709V61.912H76.7869V71H74.1949ZM86.554 71.192C84.9647 71.192 83.722 70.7493 82.826 69.864C81.93 68.9787 81.482 67.7147 81.482 66.072V59.8H84.074V65.976C84.074 67.0427 84.2927 67.8107 84.73 68.28C85.1673 68.7493 85.7807 68.984 86.57 68.984C87.3593 68.984 87.9727 68.7493 88.41 68.28C88.8473 67.8107 89.066 67.0427 89.066 65.976V59.8H91.626V66.072C91.626 67.7147 91.178 68.9787 90.282 69.864C89.386 70.7493 88.1433 71.192 86.554 71.192ZM92.481 71L97.473 59.8H100.033L105.041 71H102.321L98.225 61.112H99.249L95.137 71H92.481ZM94.977 68.6L95.665 66.632H101.425L102.129 68.6H94.977ZM106.203 71V59.8H111.051C112.054 59.8 112.918 59.9653 113.643 60.296C114.368 60.616 114.928 61.08 115.323 61.688C115.718 62.296 115.915 63.0213 115.915 63.864C115.915 64.696 115.718 65.416 115.323 66.024C114.928 66.6213 114.368 67.08 113.643 67.4C112.918 67.72 112.054 67.88 111.051 67.88H107.643L108.795 66.744V71H106.203ZM113.323 71L110.523 66.936H113.291L116.123 71H113.323ZM108.795 67.032L107.643 65.816H110.907C111.707 65.816 112.304 65.6453 112.699 65.304C113.094 64.952 113.291 64.472 113.291 63.864C113.291 63.2453 113.094 62.7653 112.699 62.424C112.304 62.0827 111.707 61.912 110.907 61.912H107.643L108.795 60.68V67.032ZM116.497 71L121.489 59.8H124.049L129.057 71H126.337L122.241 61.112H123.265L119.153 71H116.497ZM118.993 68.6L119.681 66.632H125.441L126.145 68.6H118.993ZM130.219 71V59.8H132.363L138.971 67.864H137.931V59.8H140.491V71H138.363L131.739 62.936H132.779V71H130.219ZM145.461 71V61.912H141.877V59.8H151.637V61.912H148.053V71H145.461Z" fill="#353535"/>
<g clip-path="url(#clip0_132_4)">
<path d="M155.856 59.0646L174.519 59.4147C175.161 59.4268 175.706 59.633 176.156 60.0335C176.605 60.4334 176.825 60.9082 176.815 61.4581L176.627 71.4564C176.617 72.0063 176.38 72.4729 175.916 72.8563C175.451 73.239 174.898 73.4243 174.257 73.4123L155.593 73.0621L159.224 66.129L155.856 59.0646Z" fill="#353535"/>
</g>
<g clip-path="url(#clip1_132_4)">
<path d="M35.5266 72.132L16.8602 72.0314C16.2185 72.0279 15.6701 71.829 15.2148 71.4345C14.7604 71.0407 14.5347 70.5688 14.5376 70.0188L14.5915 60.019C14.5945 59.469 14.8253 58.9992 15.284 58.6097C15.7434 58.2208 16.2939 58.0281 16.9356 58.0316L35.602 58.1322L32.0643 65.1132L35.5266 72.132Z" fill="#353535"/>
</g>
<defs>
<clipPath id="clip0_132_4">
<rect width="24" height="28" fill="white" transform="translate(180.445 54.5251) rotate(91.0748)"/>
</clipPath>
<clipPath id="clip1_132_4">
<rect width="24" height="28" fill="white" transform="translate(11 76.9998) rotate(-89.6913)"/>
</clipPath>
</defs>
</svg>
